<svg width="22" height="15" viewBox="0 0 22 15" fill="none" xmlns="http://www.w3.org/2000/svg">
<path d="M12.643 0H1.35703C0.610662 0 0 0.737813 0 1.66008V12.3399C0 13.253 0.603123 14 1.35703 14C11.8551 14 11.0949 14 12.643 14C13.3893 14 14 13.2622 14 12.3399V1.66008C14 0.747036 13.3893 0 12.643 0Z" fill="#5603AD"/>
<path d="M21.3523 0.204736C20.9456 -0.0517009 20.4485 -0.0672425 20.0267 0.158111L16.178 2.21737C15.7939 2.41941 15.5529 2.83127 15.5529 3.28197V10.7264C15.5529 11.1771 15.7939 11.5812 16.178 11.791L20.0267 13.8503C20.4485 14.0756 20.9456 14.0601 21.3523 13.8036C21.759 13.5472 22 13.0965 22 12.6147V1.40144C22 0.911878 21.7515 0.461172 21.3523 0.204736Z" fill="#5603AD"/>
</svg>
