<svg width="24" height="25" viewBox="0 0 24 25" fill="none" xmlns="http://www.w3.org/2000/svg">
<path fill-rule="evenodd" clip-rule="evenodd" d="M4.52597 4.47618C4.52597 0.506982 9.62047 -1.84723 12.6197 1.84417C10.2796 2.76702 8.20795 5.68625 9.09313 8.94918C9.079 8.94918 9.06487 8.95154 9.05075 8.95389C9.03662 8.95624 9.0225 8.9586 9.00838 8.9586C6.53175 8.9586 4.52597 6.95281 4.52597 4.47618ZM19.5176 7.48955C19.5176 9.96512 17.5107 11.972 15.0352 11.972C12.5596 11.972 10.5527 9.96512 10.5527 7.48955C10.5527 5.01398 12.5596 3.00714 15.0352 3.00714C17.5107 3.00714 19.5176 5.01398 19.5176 7.48955ZM24 20.1787C24 25.405 6.07975 25.405 6.07975 20.1787C6.07975 10.9407 24 11.0349 24 20.1787ZM9.61226 10.3052C1.33486 9.17047 -3.98566 18.7756 3.78323 20.4142C3.85857 16.0024 7.21097 13.3186 11.312 12.3298C10.6057 11.7883 10.0266 11.1009 9.61226 10.3052Z" fill="#5603AD"/>
</svg>
